<?xml version="1.0" encoding="UTF-8" standalone="no"?><!-- Generator: Gravit.io --><svg xmlns="http://www.w3.org/2000/svg" xmlns:xlink="http://www.w3.org/1999/xlink" style="isolation:isolate" viewBox="0 0 56 56" width="56pt" height="56pt"><clipPath id="_clipPath_s4ujaOCCo0OIUzB1zElxuciOBSDSGVOZ"><path d=" M 0 0 L 56 0 L 56 56 L 0 56 L 0 0 Z " fill="rgb(255,255,255)"/></clipPath><g clip-path="url(#_clipPath_s4ujaOCCo0OIUzB1zElxuciOBSDSGVOZ)"><path d=" M 56 51.016 L 42.083 51.016 L 42.083 32.648 L 47.992 32.648 L 43.176 35 L 43.176 35.075 L 56 35.075" fill="none" vector-effect="non-scaling-stroke" stroke-width="1" stroke="rgb(255,255,255)" stroke-linejoin="miter" stroke-linecap="square" stroke-miterlimit="3"/><path d=" M 54.6 0 L 54.6 3.08 L 12.712 14.728 L 12.712 32.536 L 28 32.536 C 27.863 32.558 27.961 32.536 28 32.536 C 22.904 33.32 17.808 34.216 12.712 35 C 12.945 35 12.72 34.999 12.712 35 L 28 35 L 28 51.016 L 35.253 51.016 C 35.253 51.016 35.299 45.005 41.272 45.005 L 41.272 17.64 L 56 17.64" fill="none" vector-effect="non-scaling-stroke" stroke-width="1" stroke="rgb(255,255,255)" stroke-linejoin="miter" stroke-linecap="square" stroke-miterlimit="3"/><path d=" M 0 51.016 L 4.066 51.016 L 4.066 37.833 L 10.534 32.872 L 10.534 19.689 L 11.626 19.689 L 11.626 54.884 L 23.637 54.884 L 29.853 52.92 L 31.617 53.96 L 32.961 52.92 L 41.528 54.884 L 26.409 54.884 L 26.409 56" fill="none" vector-effect="non-scaling-stroke" stroke-width="1" stroke="rgb(255,255,255)" stroke-linejoin="miter" stroke-linecap="square" stroke-miterlimit="3"/><path d=" M 54.6 56 L 54.6 52.92 L 23.8 52.92 L 23.8 51.016 L 26.936 47.88 L 26.936 36.288 C 26.936 36.288 26.768 40.32 18.648 40.32" fill="none" vector-effect="non-scaling-stroke" stroke-width="1" stroke="rgb(255,255,255)" stroke-linejoin="miter" stroke-linecap="square" stroke-miterlimit="3"/><path d=" M 0 35.075 L 0.896 35.075 L 0.896 19.69 L 8.854 19.69 L 8.854 26.997 L 6.418 26.997 L 6.418 28 L 8.854 28 L 9.632 28.028 L 9.632 8.288 L 2.408 2.184 L 2.408 0" fill="none" vector-effect="non-scaling-stroke" stroke-width="1" stroke="rgb(255,255,255)" stroke-linejoin="miter" stroke-linecap="square" stroke-miterlimit="3"/><path d=" M 26.409 0 L 26.409 1.126 C 26.409 1.126 34.128 5.326 41.272 1.126 L 41.272 5.494 L 12.712 13.272 L 12.712 6.104 L 9.632 3.416 L 9.632 0" fill="none" vector-effect="non-scaling-stroke" stroke-width="1" stroke="rgb(255,255,255)" stroke-linejoin="miter" stroke-linecap="square" stroke-miterlimit="3"/><path d=" M 2.408 56 L 2.408 52.416 L 5.768 52.416 L 5.768 38.584 L 9.632 35.075 L 9.632 56" fill="none" vector-effect="non-scaling-stroke" stroke-width="1" stroke="rgb(255,255,255)" stroke-linejoin="miter" stroke-linecap="square" stroke-miterlimit="3"/><path d=" M 43.712 36.288 C 43.712 36.288 50.527 40.361 54.6 36.288" fill="none" vector-effect="non-scaling-stroke" stroke-width="1" stroke="rgb(255,255,255)" stroke-linejoin="miter" stroke-linecap="square" stroke-miterlimit="3"/><path d=" M 0 17.64 L 6.813 17.64 L 8.854 18.723" fill="none" vector-effect="non-scaling-stroke" stroke-width="1" stroke="rgb(255,255,255)" stroke-linejoin="miter" stroke-linecap="square" stroke-miterlimit="3"/></g></svg>