<?xml version="1.0" encoding="UTF-8" standalone="no"?><!-- Generator: Gravit.io -->
<svg xmlns="http://www.w3.org/2000/svg" xmlns:xlink="http://www.w3.org/1999/xlink" viewBox="38.391 19.483 135.356 161.015" width="135.356pt" height="161.015pt">
<path class="path" stroke-dasharray="15" d=" M 82.3 152.006 C 71.85 146.829 63.052 138.726 56.527 129.1 C 49.306 118.446 44.949 106.109 42.86 93.458 C 40.779 80.86 40.53 67.429 43.945 55.041 C 47.006 43.94 53.47 33.717 63.397 27.575 C 68.005 24.724 73.239 22.865 78.669 22.541 C 84.772 22.176 90.882 23.598 96.407 26.159 C 107.019 31.078 115.581 39.72 121.812 49.496 C 127.981 59.172 132.04 70.036 134.818 81.13 C 137.776 92.941 139.544 105.185 139.805 117.362 C 140.073 129.851 138.553 142.642 133.556 154.19 C 131.238 159.547 128.288 164.857 123.937 168.835 C 119.755 172.659 114.426 174.489 108.78 174.133 C 103.001 173.769 97.454 171.343 92.658 168.208 C 87.8 165.034 83.532 160.912 79.864 156.432 C 72.511 147.453 67.629 136.378 66.048 124.876 C 64.365 112.635 66.409 99.834 71.756 88.701 C 76.814 78.17 85.172 67.607 97.231 65.21 C 100.145 64.632 103.218 64.58 106.127 65.213 C 109.102 65.86 111.802 67.211 114.225 69.042 C 118.896 72.571 122.662 77.501 125.752 82.425 C 132.061 92.478 135.626 103.987 137.716 115.603 C 138.795 121.595 139.467 127.65 139.896 133.721 C 140.395 140.79 140.544 147.897 140.02 154.968 C 139.758 158.489 139.326 161.995 138.675 165.465 C 138.198 168.007 137.602 170.576 136.39 172.881 C 135.378 174.807 133.912 176.649 131.741 177.279 C 129.001 178.074 126.214 176.703 124.091 175.037 C 115.69 168.444 112.28 157.119 112.245 146.818 C 112.227 141.462 113.052 136.13 114.623 131.012 C 115.288 128.844 116.188 126.286 118.14 124.93 C 120.358 123.388 122.266 125.561 123.473 127.402 C 126.476 131.983 127.246 137.779 125.576 142.989 L 128.469 142.989 C 126.294 127.845 130.069 111.998 138.535 99.294 C 140.686 96.067 143.133 92.977 145.969 90.322 C 148.788 87.683 152.154 85.542 156.024 84.923 C 159.504 84.367 163.154 85.224 165.68 87.759 C 168.047 90.135 169.21 93.44 169.884 96.659 C 170.67 100.413 170.84 104.326 170.717 108.15 C 170.584 112.278 170.004 116.374 168.998 120.379 C 168.013 124.295 166.639 128.113 164.856 131.738 C 163.191 135.124 161.269 138.503 158.577 141.185 C 156.279 143.476 153.175 145.366 149.802 144.782 C 146.454 144.203 143.92 141.552 142.185 138.793 C 140.066 135.42 138.759 131.516 137.979 127.627 C 137.162 123.554 137.019 119.319 137.554 115.198 C 137.975 111.953 138.788 108.446 141.137 106.012 C 142.074 105.041 143.229 104.348 144.562 104.39 C 145.943 104.434 147.111 105.317 147.911 106.39 C 150.103 109.331 150.471 113.678 149.848 117.181 C 149.533 118.955 149.019 121.064 147.944 122.551 C 147.041 123.8 145.655 122.648 145.109 121.605 C 144.209 119.887 144.34 117.731 143.674 115.916 C 143.395 115.156 142.656 114.641 141.829 114.868 C 141.096 115.069 140.5 115.949 140.781 116.713 C 141.568 118.857 141.425 121.315 142.628 123.311 C 143.685 125.066 145.711 126.453 147.826 126.052 C 150.167 125.609 151.183 123.086 151.905 121.099 C 152.685 118.955 153.075 116.642 153.087 114.363 C 153.109 110.375 152.038 105.6 148.763 102.988 C 145.547 100.423 141.363 101.226 138.733 104.197 C 135.956 107.335 135 111.423 134.52 115.477 C 133.966 120.153 134.266 124.934 135.322 129.521 C 137.048 137.011 141.463 147.121 150.31 147.849 C 154.466 148.191 158.267 145.851 161.042 142.957 C 164.041 139.829 166.222 135.934 168.032 132.026 C 171.84 123.807 173.831 114.768 173.745 105.705 C 173.672 98.055 172.564 88.165 165.389 83.724 C 161.651 81.41 156.845 81.292 152.745 82.639 C 148.489 84.038 144.898 86.925 141.891 90.175 C 130.227 102.781 124.116 120.438 124.955 137.539 C 125.058 139.632 125.278 141.713 125.576 143.787 C 125.668 144.426 126.425 144.888 127.023 144.888 C 127.7 144.888 128.267 144.418 128.469 143.787 C 130.354 137.907 129.486 131.184 126.131 125.991 C 124.466 123.415 122.021 120.822 118.654 121.482 C 115.988 122.004 114.102 124.514 113.001 126.825 C 111.774 129.399 111.068 132.268 110.482 135.048 C 109.892 137.846 109.505 140.696 109.336 143.551 C 109.003 149.195 109.549 154.965 111.203 160.383 C 112.849 165.775 115.621 170.828 119.536 174.908 C 121.714 177.178 124.322 179.264 127.398 180.133 C 130.334 180.963 133.384 180.362 135.76 178.461 C 140.302 174.827 141.35 168.185 142.148 162.799 C 143.244 155.401 143.512 147.917 143.254 140.448 C 142.806 127.45 141.265 114.264 137.542 101.77 C 134.009 89.916 128.251 78.241 119.313 69.513 C 117.02 67.274 114.43 65.244 111.512 63.888 C 108.516 62.497 105.265 61.795 101.963 61.769 C 95.399 61.716 89.054 64.204 83.887 68.166 C 78.842 72.035 74.83 77.095 71.628 82.558 C 68.302 88.232 65.835 94.436 64.321 100.834 C 61.349 113.394 62.012 126.721 66.472 138.849 C 70.695 150.334 78.047 160.823 87.736 168.352 C 97.236 175.735 110.987 180.766 122.157 173.919 C 127.391 170.712 131.172 165.572 133.991 160.215 C 137.07 154.366 139.266 148.062 140.666 141.608 C 143.505 128.527 143.27 114.955 141.624 101.733 C 140.104 89.522 137.574 77.35 133.201 65.823 C 128.95 54.617 122.925 43.967 114.43 35.421 C 105.456 26.392 93.313 19.337 80.257 19.485 C 68.318 19.62 57.421 26.28 50.219 35.539 C 42.068 46.02 38.868 59.338 38.448 72.413 C 38.008 86.111 40.101 100.183 44.936 113.023 C 49.448 125.01 56.517 136.067 66.115 144.618 C 70.545 148.565 75.466 151.961 80.786 154.596 C 82.51 155.451 84.032 152.864 82.3 152.006 Z " fill="rgb(255,255,255)"/></svg>